<?xml version="1.0" encoding="UTF-8" standalone="no"?>
<!-- Created with Inkscape (http://www.inkscape.org/) -->

<svg
   xmlns:dc="http://purl.org/dc/elements/1.1/"
   xmlns:cc="http://creativecommons.org/ns#"
   xmlns:rdf="http://www.w3.org/1999/02/22-rdf-syntax-ns#"
   xmlns:svg="http://www.w3.org/2000/svg"
   xmlns="http://www.w3.org/2000/svg"
   xmlns:sodipodi="http://sodipodi.sourceforge.net/DTD/sodipodi-0.dtd"
   xmlns:inkscape="http://www.inkscape.org/namespaces/inkscape"
   width="24"
   height="24"
   id="svg8302"
   sodipodi:version="0.32"
   inkscape:version="0.48.4 r9939"
   version="1.0"
   sodipodi:docname="book.svg"
   inkscape:output_extension="org.inkscape.output.svg.inkscape"
   inkscape:export-filename="/var/www/projects/crowbook/img/book.png"
   inkscape:export-xdpi="180"
   inkscape:export-ydpi="180">
  <defs
     id="defs8304">
    <inkscape:perspective
       sodipodi:type="inkscape:persp3d"
       inkscape:vp_x="0 : 526.18109 : 1"
       inkscape:vp_y="0 : 1000 : 0"
       inkscape:vp_z="744.09448 : 526.18109 : 1"
       inkscape:persp3d-origin="372.04724 : 350.78739 : 1"
       id="perspective8310" />
  </defs>
  <sodipodi:namedview
     id="base"
     pagecolor="#ffffff"
     bordercolor="#666666"
     borderopacity="1.0"
     gridtolerance="10000"
     guidetolerance="10"
     objecttolerance="10"
     inkscape:pageopacity="0.0"
     inkscape:pageshadow="2"
     inkscape:zoom="31.678384"
     inkscape:cx="7.2053121"
     inkscape:cy="11.76912"
     inkscape:document-units="px"
     inkscape:current-layer="layer1"
     showgrid="false"
     inkscape:window-width="1678"
     inkscape:window-height="1024"
     inkscape:window-x="1596"
     inkscape:window-y="0"
     inkscape:window-maximized="0" />
  <metadata
     id="metadata8307">
    <rdf:RDF>
      <cc:Work
         rdf:about="">
        <dc:format>image/svg+xml</dc:format>
        <dc:type
           rdf:resource="http://purl.org/dc/dcmitype/StillImage" />
      </cc:Work>
    </rdf:RDF>
  </metadata>
  <g
     inkscape:label="Layer 1"
     inkscape:groupmode="layer"
     id="layer1"
     transform="translate(0,-232)">
    <rect
       style="color:#000000;fill:#ffffff;fill-opacity:0.94117647;fill-rule:nonzero;stroke:none;stroke-width:3;marker:none;visibility:visible;display:inline;overflow:visible;enable-background:accumulate"
       id="rect3765"
       width="12.342801"
       height="5.4927049"
       x="4.6088209"
       y="16.802664"
       transform="translate(0,232)"
       rx="0.06028875" />
    <rect
       style="color:#000000;fill:#ffffff;fill-opacity:1;fill-rule:nonzero;stroke:none;stroke-width:3;marker:none;visibility:visible;display:inline;overflow:visible;enable-background:accumulate"
       id="rect3759"
       width="10.701303"
       height="16.888487"
       x="7.7971148"
       y="236.08105"
       ry="0"
       rx="0.06028875" />
    <g
       id="g2544"
       transform="matrix(3.9595115,0,0,-3.0063609,19.390687,254.12172)"
       style="fill:#ffffff;fill-opacity:0.94117647">
      <path
         d="m 0,0 -0.12,0 c -0.07,0.079 -0.096,0.178 -0.075,0.3 0.035,0.201 0.18,0.368 0.249,0.392 L 0.053,0.694 c 0.098,0.035 0.171,0.129 0.171,0.24 l 0.005,5.263 c 0,0.141 -0.115,0.256 -0.255,0.257 0,0 -1.065,0.001 -1.357,0.003 0.001,0.248 0.002,0.588 0.002,0.588 0,0.104 -0.061,0.197 -0.157,0.237 C -1.634,7.322 -1.743,7.3 -1.817,7.228 L -3.599,5.459 C -3.912,5.148 -4.159,4.56 -4.16,4.118 L -4.174,0.437 c -10e-4,-0.516 0.417,-0.938 0.934,-0.94 l 3.239,-0.01 c 0.141,0 0.256,0.115 0.256,0.255 l 0,0.001 C 0.255,-0.115 0.142,-0.001 0,0 m -0.284,5.942 c 0,-0.439 -0.004,-4.312 -0.005,-4.752 l -2.919,0 1.828,1.532 -0.004,3.222 c 0.166,-0.001 0.946,-0.002 1.1,-0.002 M -3.662,0.435 c 0,0 10e-4,0.212 10e-4,0.243 l 3.057,0 C -0.648,0.585 -0.683,0.487 -0.7,0.388 -0.724,0.251 -0.712,0.123 -0.681,0.002 L -3.238,0.01 c -0.234,0 -0.424,0.19 -0.424,0.425"
         style="fill:#000000;fill-opacity:1;fill-rule:nonzero;stroke:none"
         id="path2546"
         inkscape:connector-curvature="0" />
    </g>
  </g>
</svg>
