<?xml version="1.0" encoding="UTF-8" standalone="no"?>
<svg
   xmlns:dc="http://purl.org/dc/elements/1.1/"
   xmlns:cc="http://creativecommons.org/ns#"
   xmlns:rdf="http://www.w3.org/1999/02/22-rdf-syntax-ns#"
   xmlns:svg="http://www.w3.org/2000/svg"
   xmlns="http://www.w3.org/2000/svg"
   xmlns:sodipodi="http://sodipodi.sourceforge.net/DTD/sodipodi-0.dtd"
   xmlns:inkscape="http://www.inkscape.org/namespaces/inkscape"
   xml:space="preserve"
   viewBox="19 19 106 158.16536"
   height="60.639999mm"
   width="40.639999mm"
   y="0px"
   x="0px"
   id="Layer_1"
   version="1.1"
   inkscape:version="0.91 r13725"
   sodipodi:docname="cover.svg"
   inkscape:export-filename="/home/lise/Progs/rust/crowbook/img/crowbook.png"
   inkscape:export-xdpi="312.5"
   inkscape:export-ydpi="312.5"><metadata
     id="metadata8"><rdf:RDF><cc:Work
         rdf:about=""><dc:format>image/svg+xml</dc:format><dc:type
           rdf:resource="http://purl.org/dc/dcmitype/StillImage" /><dc:title></dc:title></cc:Work></rdf:RDF></metadata><defs
     id="defs6" /><sodipodi:namedview
     pagecolor="#ffffff"
     bordercolor="#666666"
     borderopacity="1"
     objecttolerance="10"
     gridtolerance="10"
     guidetolerance="10"
     inkscape:pageopacity="1"
     inkscape:pageshadow="2"
     inkscape:window-width="1366"
     inkscape:window-height="704"
     id="namedview4"
     showgrid="false"
     inkscape:zoom="3.2777778"
     inkscape:cx="107.00837"
     inkscape:cy="178.29058"
     inkscape:window-x="0"
     inkscape:window-y="27"
     inkscape:window-maximized="1"
     inkscape:current-layer="Layer_1"
     units="mm" /><g
     id="g5256"
     transform="matrix(0.9292188,0,0,0.9292188,5.0962448,1.1904065)"><path
       d="m 79.57926,158.23031 c -0.430709,-0.43646 -0.810507,-0.71652 -1.786515,-1.31741 -0.970824,-0.59766 -1.297999,-0.88302 -1.515789,-1.32202 -0.0847,-0.17073 -0.116014,-0.31542 -0.139914,-0.64654 -0.024,-0.33231 -0.01148,-1.18663 0.02128,-1.45349 0.03693,-0.30088 0.09558,-0.60762 0.163548,-0.85545 0.186265,-0.67899 0.419343,-1.12139 1.08594,-2.06123 0.512803,-0.72297 0.729565,-1.17918 0.833363,-1.75387 0.08055,-0.44601 0.114859,-1.37464 0.06811,-1.84387 -0.09828,-0.98644 -0.410101,-1.67646 -0.851745,-1.88472 -0.114035,-0.0538 -0.1461,-0.0598 -0.329802,-0.0624 -0.397924,-0.005 -0.598305,-0.09 -2.936016,-1.2383 -2.044084,-1.00406 -2.440792,-1.19064 -3.439841,-1.61763 -1.180638,-0.50461 -2.153253,-0.83288 -2.925986,-0.98758 -0.622067,-0.12455 -1.015475,-0.13551 -1.551581,-0.0432 -1.825603,0.31435 -3.513623,1.0265 -4.477809,1.88902 -0.377055,0.33735 -0.450884,0.45251 -1.375171,2.14525 -0.767051,1.40474 -1.198404,2.16985 -1.584245,2.80995 -0.574143,0.9526 -0.99678,1.53735 -1.216241,1.68272 -0.15784,0.10455 -0.23215,0.0725 -0.293722,-0.12672 -0.05069,-0.16401 -0.046,-1.1899 0.0098,-2.1374 0.06878,-1.16839 0.0871,-1.78501 0.07573,-2.54848 -0.02134,-1.43186 -0.142999,-2.19258 -0.49279,-3.08143 -0.311916,-0.7926 -0.609363,-1.37247 -1.088471,-2.12207 -0.376028,-0.58835 -0.4628,-0.81168 -0.441191,-1.13582 0.02711,-0.40705 0.229844,-0.7155 1.384723,-2.10684 0.86242,-1.03897 1.229135,-1.5356 1.413329,-1.91388 0.151893,-0.31196 0.180838,-0.53928 0.08568,-0.67292 -0.148465,-0.2085 -1.572211,-0.98296 -4.334064,-2.35763 -4.547054,-2.26316 -8.76531,-4.17718 -9.205617,-4.17718 -0.03215,0 -0.210953,0.0354 -0.39735,0.0787 -0.563208,0.13084 -2.013401,0.44451 -2.055094,0.44451 -0.02144,0 -0.193501,-0.086 -0.382331,-0.19117 -1.756452,-0.9781 -3.07451,-1.52204 -3.487355,-1.43916 -0.05624,0.0113 -0.113873,0.0161 -0.128075,0.0106 -0.106678,-0.0409 -0.195382,-0.59852 -0.244866,-1.53921 -0.03551,-0.67478 -0.05943,-2.37517 -0.07894,-5.61033 -0.02183,-3.62155 -0.03866,-4.31878 -0.125858,-5.21635 -0.05475,-0.56356 -0.09124,-0.71814 -0.233572,-0.98954 -0.12039,-0.22956 -0.132226,-0.30907 -0.05719,-0.3841 0.197053,-0.19706 1.187493,0.24929 1.415002,0.63766 0.05404,0.0923 0.08117,0.23369 0.223597,1.16555 0.476219,3.11605 0.871873,4.59576 1.286035,4.80995 0.05365,0.0278 0.06365,0.0274 0.121782,-0.004 0.202032,-0.10881 0.588016,-0.81467 1.102009,-2.01529 1.102009,-2.57403 2.553254,-6.86201 2.820447,-8.33337 0.02131,-0.11723 0.04421,-0.3073 0.05092,-0.42237 0.0067,-0.11504 0.01898,-0.20225 0.02722,-0.19379 0.0083,0.008 0.08163,0.41221 0.163038,0.89717 0.234681,1.39814 0.404347,2.18315 0.602413,2.78702 0.106282,0.32409 0.284982,0.69372 0.404635,0.83689 0.104142,0.12466 0.115793,0.15963 0.102403,0.30728 -0.01252,0.13815 -0.08142,0.29076 -0.286247,0.63398 -0.334982,0.56135 -0.471565,0.85655 -0.588782,1.27252 -0.08206,0.29122 -0.176507,0.54628 -0.445942,1.20424 -0.290688,0.70988 -0.355395,0.93615 -0.294318,1.02934 0.0449,0.0685 0.123961,0.0632 0.280159,-0.019 0.213775,-0.11245 0.461441,-0.31251 0.779302,-0.62949 0.609886,-0.60822 1.176913,-1.30056 2.595518,-3.16907 0.8437,-1.1113 1.184603,-1.5213 1.264833,-1.5213 0.01853,0 0.03435,0.0262 0.04269,0.0706 0.01019,0.0543 0.05713,0.11633 0.203291,0.26846 0.212257,0.22096 0.291429,0.35798 0.344389,0.59618 0.03913,0.17593 0.0433,0.66624 0.0079,0.9252 -0.130994,0.9575 -0.530876,2.20755 -1.286609,4.02222 -0.32789,0.7873 -0.419271,1.08178 -0.396992,1.27942 0.04207,0.37321 0.484672,0.19175 1.63267,-0.66932 0.223837,-0.16789 0.677055,-0.51235 1.007166,-0.76548 1.714905,-1.31497 2.697,-1.93431 3.51792,-2.21868 0.366334,-0.12686 0.448903,-0.13628 1.385654,-0.15809 0.948356,-0.0221 1.217483,-0.0188 1.251532,0.0153 0.05641,0.0565 -0.0097,0.13726 -0.599763,0.733 -0.754659,0.7619 -1.412851,1.46407 -1.680617,1.79301 -0.255445,0.3138 -0.355684,0.49547 -0.356352,0.64592 -3.57e-4,0.0794 0.0085,0.10227 0.05679,0.14742 0.093,0.0869 0.204671,0.10772 0.562944,0.10514 0.762777,-0.005 2.164883,-0.31094 5.05995,-1.1023 1.070801,-0.29269 1.562945,-0.40139 1.833529,-0.40492 0.180932,-0.002 0.234103,0.0249 0.208742,0.10717 -0.0078,0.0252 -0.216765,0.24635 -0.464448,0.4915 -0.486318,0.48136 -0.552555,0.57016 -0.552555,0.74101 0,0.22328 0.289447,0.51681 0.794653,0.80587 0.740833,0.42388 1.678324,0.67594 2.519348,0.67729 0.407237,6.5e-4 0.608027,-0.025 1.00984,-0.12886 0.358075,-0.0926 0.605734,-0.11658 1.054089,-0.10217 0.456543,0.0147 0.731187,0.0438 1.676366,0.17777 1.614235,0.22883 2.164001,0.2628 2.78702,0.17211 0.372399,-0.0542 0.73472,-0.18753 0.955735,-0.35167 0.133637,-0.0993 0.298398,-0.27379 0.397995,-0.42159 0.619796,-0.91982 2.317198,-4.80756 4.700348,-10.76556 0.709554,-1.77393 1.489761,-3.75884 2.033772,-5.17432 0.170006,-0.44234 0.337035,-0.8517 0.371156,-0.90967 0.14465,-0.24571 0.446396,-0.50929 0.869846,-0.75987 0.49286,-0.29164 0.950479,-0.48627 2.622499,-1.11531 1.62319,-0.610669 2.368465,-0.924829 3.255743,-1.372449 1.095894,-0.55279 1.245754,-0.65186 3.682916,-2.43506 1.973645,-1.44399 2.714191,-1.97849 3.628473,-2.61939 3.211566,-2.25082 5.330964,-3.44175 6.835264,-3.84075 0.66211,-0.17568 1.91028,-0.32761 2.88827,-0.35156 0.78901,-0.0193 1.23553,0.0421 1.40019,0.19268 0.12209,0.11163 -0.0242,0.44563 -0.4856,1.1087 -0.94246,1.35435 -2.57093,3.22995 -4.241183,4.88468 -0.973095,0.96407 -1.601963,1.52563 -2.429091,2.16902 -1.188807,0.92474 -2.628234,2.330399 -3.678619,3.591939 -0.477173,0.57323 -0.790379,1.01662 -1.049716,1.48606 -0.29353,0.53126 -0.50879,0.79472 -1.47615,1.80667 -0.908456,0.95031 -1.205304,1.31655 -1.392506,1.71808 -0.114175,0.24489 -0.12593,0.3105 -0.126063,0.7038 -2.18e-4,0.69868 -0.148711,1.93825 -0.43601,3.63969 -0.544436,3.22422 -1.22271,5.92815 -1.751151,6.98116 -0.198578,0.39566 -0.627032,0.97641 -1.071326,1.45216 -0.23437,0.25095 -0.489591,0.49706 -1.004969,0.9691 -0.59248,0.54265 -0.821636,0.80559 -0.874192,1.00306 -0.137799,0.5176 -0.283954,0.79157 -0.553798,1.03821 -0.158173,0.14456 -0.303034,0.23805 -0.684411,0.44167 -0.941978,0.50293 -1.509675,0.93515 -1.668078,1.26998 -0.135519,0.28644 -0.04534,0.40638 0.590997,0.78611 0.452559,0.27006 0.936872,0.52889 1.832888,0.97954 2.033409,1.02276 3.7481,1.76619 4.362478,1.89139 0.259266,0.0528 0.292791,0.067 0.285171,0.12074 -0.0065,0.0457 -0.05621,0.0739 -0.538873,0.30521 -0.248234,0.11896 -0.413326,0.23462 -0.482379,0.33797 -0.0629,0.0941 -0.05008,0.2126 0.04335,0.40038 0.276503,0.55583 1.041811,1.30067 1.533003,1.492 0.242025,0.0943 0.286391,0.0932 0.814689,-0.0207 2.559462,-0.55148 5.601258,-1.29998 6.656898,-1.63811 1.274406,-0.40822 3.951061,-1.07432 6.821651,-1.69762 0.29313,-0.0636 0.56782,-0.13276 0.61047,-0.15362 0.2353,-0.11506 0.66631,-0.52667 1.31844,-1.2591 0.49283,-0.55353 0.82091,-0.89293 0.93823,-0.97066 0.11186,-0.0741 0.18005,-0.0702 0.19735,0.0114 0.0652,0.30757 -0.12575,1.40755 -0.38304,2.20595 -0.20737,0.64346 -0.45177,1.09862 -0.67608,1.25908 -0.0424,0.0303 -0.21659,0.14692 -0.38713,0.25912 -0.9922,0.65284 -1.85447,1.42405 -2.0395,1.82417 -0.0443,0.0958 -0.0465,0.11576 -0.0338,0.30263 0.0209,0.30582 -0.0305,0.44704 -0.3229,0.88828 -0.0866,0.13064 -0.18119,0.29011 -0.21025,0.35441 -0.0937,0.20733 -0.30721,0.36319 -1.32763,0.96925 -0.96935,0.57575 -1.351871,0.83236 -1.586328,1.06419 -0.133466,0.13198 -0.185888,0.23567 -0.186589,0.36903 -0.0023,0.43367 -0.283117,1.32508 -0.519579,1.64898 -0.09341,0.12795 -0.259408,0.19105 -1.09898,0.41772 -0.277126,0.0748 -0.709408,0.19167 -0.960626,0.25965 -1.121066,0.30337 -1.681309,0.50635 -1.942245,0.70365 -0.109053,0.0825 -0.130384,0.12396 -0.394272,0.76703 -0.324573,0.79093 -0.549834,1.21025 -0.72455,1.34862 -0.141465,0.11204 -0.372373,0.12053 -1.046109,0.0384 -0.845612,-0.10304 -1.320971,-0.12249 -1.638807,-0.0671 -0.263995,0.046 -0.447447,0.14081 -0.536226,0.27698 -0.166205,0.25497 -0.205477,0.30342 -0.301649,0.37231 -0.22481,0.16098 -0.440784,0.20708 -1.089209,0.23247 -0.610891,0.0239 -0.710365,0.0392 -1.151033,0.17657 -1.096825,0.34195 -1.868199,0.52001 -2.389929,0.5517 -0.255444,0.0155 -0.370514,-0.006 -0.567528,-0.10768 -0.309554,-0.15925 -0.93188,-0.3336 -1.462494,-0.40977 -0.230312,-0.0331 -0.349978,-0.0398 -0.581402,-0.0327 -0.358308,0.011 -0.418218,0.0315 -0.6596,0.22594 -0.126797,0.10213 -0.253774,0.17945 -0.465116,0.28324 -0.230205,0.11303 -0.620347,0.26898 -0.777842,0.31096 -0.06004,0.016 -0.05912,1.93983 0.0013,2.26503 0.03812,0.2059 0.07411,0.28896 0.137799,0.318 0.04719,0.0215 0.167749,0.0478 1.307571,0.28541 1.359079,0.28331 2.131621,0.52679 2.399962,0.75643 0.159669,0.13665 0.166377,0.13355 -0.295394,0.13673 -1.073046,0.007 -2.536062,0.19043 -2.80851,0.35138 l -0.06163,0.0364 0.0052,0.19227 c 0.0085,0.3101 0.05913,0.74515 0.110789,0.95086 0.05533,0.22032 0.18326,0.49267 0.311675,0.66349 0.264997,0.35251 0.719895,0.71732 1.392795,1.11691 0.425908,0.25291 0.40122,0.24883 -0.434816,-0.072 -0.97364,-0.37371 -1.035272,-0.39024 -1.097854,-0.29472 -0.121995,0.18617 0.111492,0.97507 0.556616,1.88064 0.0845,0.17192 0.153642,0.32672 0.153642,0.34398 0,0.14885 -0.48355,-0.21652 -0.885559,-0.66913 -0.524976,-0.59107 -0.819245,-1.05143 -0.991357,-1.55093 -0.04289,-0.12447 -0.09269,-0.25528 -0.110668,-0.29069 -0.112511,-0.2217 -0.292096,-0.35781 -0.448758,-0.34014 -0.242219,0.0273 -0.448738,0.32433 -0.562299,0.80869 -0.02624,0.11191 -0.09465,0.39969 -0.152042,0.63955 -0.144803,0.60516 -0.169598,0.7602 -0.170458,1.06588 -0.0013,0.41695 0.08435,0.65556 0.314663,0.87791 0.154783,0.14944 0.253605,0.20176 0.61156,0.32379 1.301531,0.44369 2.423596,1.29353 2.860082,2.16584 0.08301,0.16596 0.168122,0.43839 0.186917,0.59828 0.0207,0.17614 -0.02595,0.14393 -0.356067,-0.24568 -0.1934,-0.22826 -0.40122,-0.42603 -0.543174,-0.51681 -0.170522,-0.10908 -0.285816,-0.14135 -0.505112,-0.14135 -0.277388,0 -0.333499,-0.0223 -0.815953,-0.32467 -0.279941,-0.17541 -0.595798,-0.32275 -0.825169,-0.38493 -0.174106,-0.0472 -0.227269,-0.0526 -0.523257,-0.0534 -0.294964,-6.5e-4 -0.353777,0.005 -0.561583,0.0536 -0.331449,0.0777 -0.573834,0.16744 -0.950051,0.35158 -0.407834,0.19961 -0.638042,0.33412 -0.761059,0.44475 -0.228427,0.20538 -0.333668,0.58293 -0.29303,1.05115 0.05968,0.6873 0.415356,1.49652 0.692197,1.57488 0.216457,0.0613 0.659123,0.10336 1.347806,0.12809 l 0.365785,0.0132 -0.136605,0.0633 c -0.447162,0.20713 -0.726435,0.50526 -0.69413,0.74103 0.01534,0.1119 0.140092,0.33665 0.540261,0.9733 0.4144,0.65929 0.522304,0.83587 0.514808,0.84232 -0.0035,0.003 -0.128383,-0.11833 -0.277606,-0.26953 z m 0.08338,-13.89904 c 0.0032,-0.0441 -0.01599,-0.19667 -0.04271,-0.33914 -0.08883,-0.47387 -0.09862,-0.57643 -0.09871,-1.03424 -6.2e-5,-0.30162 0.0121,-0.5659 0.03758,-0.81738 0.02965,-0.29249 0.03283,-0.38229 0.01495,-0.4215 -0.02932,-0.0644 -0.08306,-0.0641 -0.194114,9.7e-4 l -0.08675,0.0509 -0.166882,-0.0406 c -0.431212,-0.10483 -0.807429,-0.13927 -1.022044,-0.0936 -0.275789,0.0587 -0.434553,0.17871 -0.693413,0.52421 -0.368529,0.49186 -0.57352,0.84647 -0.57352,0.9921 0,0.13894 0.04995,0.16296 0.457166,0.21985 0.542956,0.0759 0.590546,0.096 1.558337,0.6575 0.539256,0.31292 0.696158,0.39312 0.755804,0.38644 0.04186,-0.005 0.04924,-0.0164 0.0543,-0.0855 z"
       id="path2384"
       inkscape:connector-curvature="0" /><path
       inkscape:connector-curvature="0"
       id="path3-4"
       d="m 71.95687,71.813773 c -0.166685,0 -0.325183,0.03598 -0.478759,0.0877 l 0,0.07189 c -0.292838,0.118867 -0.55085,0.317255 -0.721734,0.593777 l -2.718723,4.395101 c -0.426999,0.035 -0.856005,0.07808 -1.281006,0.125082 l -3.520969,-3.779759 c -0.357,-0.382003 -0.886336,-0.552443 -1.400336,-0.451443 -0.515,0.102 -0.939857,0.462644 -1.122857,0.954644 l -1.804335,4.827854 c -0.418,0.12 -0.831625,0.24712 -1.243625,0.378119 l -4.185194,-3.01202 c -0.425,-0.306 -0.979158,-0.37065 -1.462159,-0.16965 -0.483999,0.2 -0.830388,0.638487 -0.914388,1.154486 l -0.829562,5.090957 c -0.384007,0.198999 -0.763983,0.404467 -1.142985,0.612467 l -4.694147,-2.139323 c -0.476999,-0.217 -1.029472,-0.174107 -1.466471,0.117893 -0.436,0.289999 -0.691413,0.788196 -0.671413,1.311197 l 0.181152,5.165718 c -0.33499,0.267 -0.666014,0.539185 -0.992025,0.815185 l -5.032009,-1.186116 c -0.511,-0.12 -1.045713,0.034 -1.414713,0.403998 -0.372001,0.371 -0.523998,0.90515 -0.404,1.416151 l 1.187555,5.03201 c -0.277,0.325 -0.549623,0.656587 -0.816623,0.990587 l -5.165717,-0.179715 c -0.52601,-0.02 -1.018771,0.233976 -1.30976,0.669976 -0.29201,0.434 -0.336893,0.989909 -0.117893,1.467909 l 2.139323,4.695582 c -0.20799,0.377 -0.414468,0.75699 -0.612468,1.14299 l -5.089518,0.82812 c -0.517,0.085 -0.954487,0.43139 -1.154487,0.91439 -0.2,0.485 -0.137349,1.03716 0.169651,1.46216 l 3.012017,4.18232 c -0.13,0.413 -0.25712,0.8285 -0.37812,1.2465 l -4.827854,1.80433 c -0.491,0.183 -0.852206,0.60786 -0.953206,1.12286 -0.103999,0.513 0.06888,1.04234 0.452881,1.40034 l 3.775445,3.5224 c -0.04598,0.425 -0.08808,0.85157 -0.125082,1.27957 l -4.393663,2.72016 c -0.444999,0.275 -0.714545,0.76132 -0.714545,1.28532 0,0.524 0.270983,1.01132 0.715983,1.28532 l 4.393663,2.72016 c 0.03698,0.427 0.07908,0.85457 0.125082,1.27957 l -3.776883,3.52384 c -0.38404,0.357 -0.555443,0.88634 -0.451443,1.40034 0.1,0.515 0.462207,0.93742 0.953207,1.12142 l 4.826415,1.80433 c 0.121,0.418 0.24812,0.8335 0.37812,1.2465 l -3.01058,4.18376 c -0.306999,0.426 -0.36965,0.97772 -0.16965,1.46072 0.199999,0.485 0.635049,0.83139 1.153049,0.91439 l 5.090956,0.82812 c 0.19801,0.38601 0.40204,0.76543 0.61103,1.14443 l -2.137885,4.69415 c -0.219001,0.477 -0.174108,1.0319 0.117892,1.4679 0.291,0.437 0.788771,0.69098 1.309761,0.66998 l 5.165717,-0.17971 c 0.265999,0.336 0.537747,0.66503 0.813748,0.99202 l -1.184679,5.03201 c -0.12,0.51 0.03056,1.04371 0.402561,1.41471 0.369,0.37303 0.90515,0.52113 1.416151,0.40113 l 5.030571,-1.18468 c 0.326011,0.278 0.658035,0.54674 0.992025,0.81374 l -0.179714,5.16716 c -0.019,0.524 0.233975,1.0192 0.669975,1.3112 0.434996,0.291 0.99091,0.33446 1.46791,0.11645 l 4.694146,-2.13788 c 0.379,0.207 0.758985,0.41347 1.142984,0.61247 l 0.829563,5.08808 c 0.084,0.517 0.430387,0.95549 0.914388,1.15448 0.483,0.20099 1.035721,0.13679 1.460721,-0.16821 l 4.183756,-3.01346 c 0.412999,0.13099 0.828501,0.25956 1.246501,0.37956 l 1.804335,4.82498 c 0.183,0.49 0.606419,0.8522 1.121419,0.9532 0.513,0.10401 1.043336,-0.0674 1.400336,-0.45144 l 3.522407,-3.77688 c 0.425,0.049 0.851569,0.09 1.279568,0.12796 l 2.720161,4.39366 c 0.275,0.444 0.762757,0.71599 1.286756,0.71599 0.166227,0 0.324314,-0.0361 0.477322,-0.0877 l 0,-0.0719 c 0.292583,-0.11912 0.549528,-0.31807 0.720296,-0.59378 l 2.720161,-4.39366 c 0.428,-0.0379 0.854568,-0.0791 1.279568,-0.12796 l 3.522407,3.77688 c 0.357,0.38405 0.887336,0.55544 1.400336,0.45145 0.515,-0.10101 0.93842,-0.46321 1.121419,-0.95321 l 1.804335,-4.82498 c 0.418,-0.12 0.833502,-0.24857 1.246501,-0.37956 l 4.183756,3.01346 c 0.425001,0.305 0.977721,0.36921 1.460721,0.16821 0.484001,-0.19899 0.830388,-0.63748 0.914388,-1.15449 l 0.829563,-5.08808 c 0.383999,-0.199 0.763984,-0.40546 1.142984,-0.61246 l 4.694146,2.13788 c 0.476996,0.21802 1.032916,0.17455 1.467906,-0.11645 0.436,-0.292 0.68898,-0.7872 0.66998,-1.3112 l -0.17971,-5.16716 c 0.33399,-0.267 0.66601,-0.53574 0.99202,-0.81374 l 5.03057,1.18468 c 0.511,0.12 1.04715,-0.0281 1.41615,-0.40113 0.372,-0.371 0.52256,-0.90471 0.40256,-1.41471 l -1.18468,-5.03201 c 0.276,-0.32699 0.54775,-0.65603 0.81375,-0.99202 l 5.16572,0.17971 c 0.52099,0.021 1.01876,-0.23298 1.30976,-0.66998 0.292,-0.436 0.33689,-0.99091 0.11789,-1.46791 l -2.13788,-4.69414 c 0.20899,-0.37901 0.41302,-0.75842 0.61103,-1.14443 l 5.09095,-0.82812 c 0.518,-0.083 0.95305,-0.42939 1.15305,-0.91439 0.2,-0.483 0.13735,-1.03472 -0.16965,-1.46072 l -3.01058,-4.18376 c 0.13,-0.413 0.25712,-0.8285 0.37812,-1.2465 l 4.82642,-1.80433 c 0.491,-0.184 0.8532,-0.60642 0.9532,-1.12142 0.104,-0.514 -0.0674,-1.04334 -0.45144,-1.40034 l -3.77688,-3.52384 c 0.046,-0.425 0.0881,-0.85257 0.12508,-1.27957 l 4.39366,-2.72016 c 0.445,-0.274 0.71598,-0.76132 0.71598,-1.28532 0,-0.524 -0.26954,-1.01032 -0.71454,-1.28532 l -4.39366,-2.72016 c -0.037,-0.428 -0.0791,-0.85457 -0.12509,-1.27957 l 3.77545,-3.5224 c 0.384,-0.358 0.55688,-0.88734 0.45288,-1.40034 -0.101,-0.515 -0.46221,-0.93986 -0.95321,-1.12286 l -4.82785,-1.80433 c -0.121,-0.418 -0.24812,-0.8335 -0.37812,-1.2465 l 3.01202,-4.18232 c 0.307,-0.425 0.36965,-0.97716 0.16965,-1.46216 -0.2,-0.483 -0.63749,-0.82939 -1.15449,-0.91439 l -5.08952,-0.82812 c -0.198,-0.386 -0.40447,-0.76599 -0.61246,-1.14299 l 2.13932,-4.695582 c 0.219,-0.478001 0.17412,-1.033909 -0.11789,-1.467909 -0.29099,-0.435999 -0.78375,-0.689976 -1.30976,-0.669976 l -5.16572,0.179714 c -0.267,-0.334 -0.53963,-0.665587 -0.81663,-0.990587 l 1.18756,-5.032009 c 0.12,-0.511001 -0.032,-1.045151 -0.404,-1.416151 -0.369,-0.369998 -0.90371,-0.523999 -1.41471,-0.403999 l -5.03201,1.186117 c -0.32601,-0.275999 -0.65703,-0.548186 -0.99202,-0.815186 l 0.18115,-5.165717 c 0.02,-0.523001 -0.23542,-1.021198 -0.67142,-1.311198 -0.43699,-0.292 -0.98947,-0.334893 -1.466467,-0.117892 l -4.694147,2.139322 c -0.379002,-0.208 -0.758978,-0.413468 -1.142985,-0.612468 l -0.829562,-5.090955 c -0.084,-0.516 -0.430388,-0.954487 -0.914389,-1.154487 -0.483,-0.201 -1.037157,-0.136349 -1.462158,0.169651 l -4.185194,3.012017 c -0.412,-0.130999 -0.825625,-0.25812 -1.243625,-0.37812 l -1.804335,-4.827854 c -0.183,-0.492 -0.607857,-0.852644 -1.122857,-0.954644 -0.514,-0.101001 -1.043336,0.06944 -1.400336,0.451444 l -3.520969,3.779757 c -0.425001,-0.047 -0.854006,-0.09008 -1.281006,-0.125081 l -2.718723,-4.395101 c -0.275,-0.445 -0.762757,-0.715983 -1.286757,-0.715983 z m 0.181153,9.293403 c 0.02599,-6.04e-4 0.05172,0.0049 0.07764,0.0058 0.671081,0.09281 1.318124,0.390406 1.823024,0.918701 0.338919,0.356079 0.566044,0.774142 0.704482,1.213433 a 40.289779,40.289779 0 0 1 33.247211,26.25271 c 0.6824,-0.20185 1.43353,-0.1851 2.13501,0.12652 1.569,0.696 2.27605,2.53656 1.58005,4.10756 -0.39778,0.89973 -1.17297,1.50281 -2.0545,1.73532 a 40.289779,40.289779 0 0 1 0.7965,7.78093 40.289779,40.289779 0 0 1 -13.944425,30.41778 c 1.048666,0.68278 1.628017,1.95912 1.350017,3.25643 -0.359995,1.68 -2.013619,2.74992 -3.690619,2.39092 -1.136368,-0.24516 -1.979288,-1.08699 -2.301785,-2.12494 a 40.289779,40.289779 0 0 1 -20.087782,6.27994 40.289779,40.289779 0 0 1 -19.633464,-6.24256 c -0.322497,1.03795 -1.165418,1.87978 -2.301785,2.12494 -1.677,0.359 -3.330624,-0.71092 -3.690619,-2.39092 -0.278,-1.29731 0.301352,-2.57365 1.350017,-3.25643 a 40.289779,40.289779 0 0 1 -13.944421,-30.41783 40.289779,40.289779 0 0 1 0.796496,-7.78092 c -0.881531,-0.23252 -1.656718,-0.8356 -2.054498,-1.73533 -0.696001,-1.571 0.01105,-3.41156 1.580051,-4.10756 0.70148,-0.31162 1.45261,-0.32837 2.13501,-0.12652 A 40.289779,40.289779 0 0 1 69.256838,83.282442 c 0.138438,-0.439292 0.365563,-0.857354 0.704481,-1.213433 0.5935,-0.621 1.381579,-0.943333 2.176704,-0.961833 z" /></g><text
     xml:space="preserve"
     style="font-style:normal;font-variant:normal;font-weight:bold;font-stretch:normal;font-size:9.2829895px;line-height:125%;font-family:'Linux Biolinum O';-inkscape-font-specification:'Linux Biolinum O, Bold';text-align:center;letter-spacing:0px;word-spacing:0px;writing-mode:lr-tb;text-anchor:middle;fill:#000000;fill-opacity:1;stroke:none;stroke-width:1px;stroke-linecap:butt;stroke-linejoin:miter;stroke-opacity:1"
     x="71.78598"
     y="38.114395"
     id="text5260"
     sodipodi:linespacing="125%"><tspan
       sodipodi:role="line"
       id="tspan5264"
       x="71.78598"
       y="38.114395">CROWBOOK</tspan><tspan
       sodipodi:role="line"
       id="tspan5266"
       x="71.78598"
       y="49.718132">USER</tspan><tspan
       sodipodi:role="line"
       id="tspan5268"
       x="71.78598"
       y="61.321869">GUIDE</tspan></text>
</svg>